[img]http://img515.imageshack.us/img515/1909/19075567.jpg[/img]

TITLE:

The Bourne Legacy 2012 TS READNFO XViD - INSPiRAL

IMDB:
 
http://www.imdb.com/title/tt1194173/


SOURCES:

VIDEO - 26K VOBS ( Total of 3mins) THANKS
       ILLUMINATI ( Total of 1min ) THANKS    
       Special Friends ( rest ) x2 THANKS

AUDIO - RiPLEGENDZ THANKS

SUBS  - None Add

STATS:

Video
ID                               : 0
Format                           : MPEG-4 Visual
Format profile                   : Advanced Simple@L5
Format settings, BVOP            : 2
Format settings, QPel            : No
Format settings, GMC             : No warppoints
Format settings, Matrix          : Default (MPEG)
Muxing mode                      : Packed bitstream
Codec ID                         : XVID
Codec ID/Hint                    : XviD
Duration                         : 2h 7mn 56secs
Bit rate                         : 2 051 Kbps
Width                            : 720 pixels
Height                           : 272 pixels
Display aspect ratio             : 2.647
Frame rate                       : 29.970 fps
Color space                      : YUV
Chroma subsampling               : 4:2:0
Bit depth                        : 8 bits
Scan type                        : Progressive
Compression mode                 : Lossy
Bits/(Pixel*Frame)               : 0.349
Stream size                      : 1.83 GiB (94%)
Writing library                  : XviD 64

Audio
ID                               : 1
Format                           : MPEG Audio
Format version                   : Version 1
Format profile                   : Layer 3
Codec ID                         : 55
Codec ID/Hint                    : MP3
Duration                         : 2h 7mn 56secs
Bit rate mode                    : Constant
Bit rate                         : 128 Kbps
Channel(s)                       : 2 channels
Sampling rate                    : 48.0 KHz
Compression mode                 : Lossy
Stream size                      : 117 MiB (6%)
Alignment                        : Split accross interleaves
Interleave, duration             : 33 ms (1.00 video frame)
Interleave, preload duration     : 500 ms




NOTES:

Ok first off ....reason for readnfo <<< too let you know that the video is made up of 4 videos.
Quality and AR changes due too different sources and difference res that needed too be changed so we
could append all the pieces.
The first 53secs and last 2mins are from 26k vobs,Around 1 min at the end is from ILLUMINATI,then we have
around 4 mins in 4 different parts from a special friend and then the rest and the main body of this is from
yes thats right another special friend

All the videos have been worked on alot and done all the normal stuff....would take ages to write what had to be
done too every piece.

Audio was from riplegendz and had too be shrink to fit the encode and then still needed some TLC due to all the joins.
Audio was nice,but had a fair amount of noise too it so thats been cleaned up after we syncd it.

Some scenes are dark so i would say this is 99.9% in sync and if it drifts a tad it will only be by 100ms etc and not for
long at all.

Anyway enjoy folks

[img]http://img525.imageshack.us/img525/2193/54225988.png[/img]
[img]http://img228.imageshack.us/img228/8750/40266242.png[/img]
[img]http://img849.imageshack.us/img849/6259/56025774.png[/img]
[img]http://img259.imageshack.us/img259/3776/13637565.png[/img]
[img]http://img716.imageshack.us/img716/3339/69743251.png[/img]